<?xml version="1.0" encoding="UTF-8"?>
<svg version="1.1" xmlns="http://www.w3.org/2000/svg" width="32" height="32">
<path d="M0 0 C3.83226766 1.35035859 6.51761239 2.72800762 9 6 C9.78894597 11.43675013 9.52446866 16.54811592 9 22 C8.01 22.33 7.02 22.66 6 23 C6 23.66 6 24.32 6 25 C-0.85024615 26.37004923 -7.14975385 26.37004923 -14 25 C-14 24.34 -14 23.68 -14 23 C-14.99 22.67 -15.98 22.34 -17 22 C-18.37725824 7.68331562 -18.37725824 7.68331562 -15.06640625 3.63671875 C-12.75549085 2.1466405 -10.55685917 1.00151343 -8 0 C-4.92482069 -1.53758966 -3.32251885 -0.9061415 0 0 Z M-9.125 4.5 C-9.84945313 4.9640625 -10.57390625 5.428125 -11.3203125 5.90625 C-11.87460938 6.2671875 -12.42890625 6.628125 -13 7 C-12.01 8.485 -12.01 8.485 -11 10 C-9.68 8.68 -8.36 7.36 -7 6 C-7.0825 6.9075 -7.165 7.815 -7.25 8.75 C-7.29076009 12.04870968 -7.29076009 12.04870968 -5.25 14.3125 C-3.01985754 15.98510684 -1.75052932 16.73381974 1 17 C1.99 16.67 2.98 16.34 4 16 C3.67 16.99 3.34 17.98 3 19 C3.99 19 4.98 19 6 19 C6.5479118 15.19843914 6.78253011 11.77791028 6 8 C3.38717322 5.20770633 0.50381908 3.49892621 -3 2 C-5.67550292 2 -6.89044641 3.05835252 -9.125 4.5 Z M-14 10 C-14 11.65 -14 13.3 -14 15 C-13.34 15 -12.68 15 -12 15 C-12.33 13.35 -12.66 11.7 -13 10 C-13.33 10 -13.66 10 -14 10 Z M-12 17 C-12.66 17.66 -13.32 18.32 -14 19 C-12.68 18.67 -11.36 18.34 -10 18 C-10.66 17.67 -11.32 17.34 -12 17 Z " fill="#F9B004" transform="translate(20,3)"/>
<path d="M0 0 C0.66 0 1.32 0 2 0 C2 0.99 2 1.98 2 3 C1.34 3 0.68 3 0 3 C0 2.01 0 1.02 0 0 Z " fill="#FDAE01" transform="translate(18,15)"/>
<path d="M0 0 C0.66 0.33 1.32 0.66 2 1 C2 1.66 2 2.32 2 3 C1.01 2.67 0.02 2.34 -1 2 C-0.67 1.34 -0.34 0.68 0 0 Z " fill="#F9AB04" transform="translate(23,14)"/>
<path d="M0 0 C0.66 0 1.32 0 2 0 C2 0.99 2 1.98 2 3 C1.34 3 0.68 3 0 3 C0 2.01 0 1.02 0 0 Z " fill="#FDB101" transform="translate(14,10)"/>
<path d="M0 0 C0.99 0 1.98 0 3 0 C3 0.66 3 1.32 3 2 C2.01 1.67 1.02 1.34 0 1 C0 0.67 0 0.34 0 0 Z " fill="#FCC201" transform="translate(20,10)"/>
<path d="M0 0 C0.66 0.66 1.32 1.32 2 2 C1.01 2 0.02 2 -1 2 C-0.67 1.34 -0.34 0.68 0 0 Z " fill="#FDB001" transform="translate(15,6)"/>
<path d="M0 0 C0.99 0.33 1.98 0.66 3 1 C2.01 1 1.02 1 0 1 C0 0.67 0 0.34 0 0 Z " fill="#FBC503" transform="translate(16,13)"/>
</svg>
