<svg
  version="1.1"
  id="Layer_1"
  xmlns="http://www.w3.org/2000/svg"
  xmlns:xlink="http://www.w3.org/1999/xlink"
  x="0px"
  y="0px"
  width="100%"
  viewBox="0 0 96 96"
  enable-background="new 0 0 96 96"
  xml:space="preserve"
>
  <path
    fill="#000000"
    opacity="1.000000"
    stroke="none"
    d="
M62.000000,97.000000 
	C41.333332,97.000000 21.166666,97.000000 1.000000,97.000000 
	C1.000000,65.000000 1.000000,33.000000 1.000000,1.000000 
	C33.000000,1.000000 65.000000,1.000000 97.000000,1.000000 
	C97.000000,33.000000 97.000000,65.000000 97.000000,97.000000 
	C85.500000,97.000000 74.000000,97.000000 62.000000,97.000000 
M82.261856,68.999924 
	C77.029579,68.999924 71.797295,68.999924 66.430069,68.999924 
	C68.398621,66.048523 70.067055,63.547092 71.735489,61.045658 
	C71.436729,60.599121 71.137970,60.152584 70.839211,59.706043 
	C61.548973,61.542782 52.735069,61.215084 45.706024,54.167233 
	C38.683144,47.125561 38.573090,38.258324 40.286880,28.764801 
	C33.373505,29.504391 30.306746,34.343830 28.333874,38.777824 
	C23.435043,49.787861 25.385208,60.126957 35.214226,69.459007 
	C26.390715,69.459007 18.760595,69.459007 11.130476,69.459007 
	C11.112352,69.780243 11.094229,70.101479 11.076105,70.422714 
	C13.049437,70.814240 15.022768,71.205757 16.996099,71.597282 
	C16.965723,71.916542 16.935349,72.235809 16.904972,72.555069 
	C14.937471,72.884399 12.969971,73.213722 11.002469,73.543053 
	C11.049010,73.947433 11.095551,74.351807 11.142092,74.756187 
	C14.398934,74.926682 17.655777,75.097168 20.912619,75.267662 
	C20.930367,75.703270 20.948114,76.138885 20.965860,76.574493 
	C18.318575,76.857338 15.671288,77.140182 13.024001,77.423027 
	C13.049049,78.004021 13.074097,78.585007 13.099145,79.166000 
	C19.044184,79.166000 24.989223,79.166000 30.934261,79.166000 
	C30.922091,79.651466 30.909918,80.136940 30.897745,80.622406 
	C27.612625,80.910988 24.327503,81.199577 21.042383,81.488159 
	C21.082150,81.974274 21.121916,82.460388 21.161682,82.946503 
	C27.018360,82.946503 32.875038,82.946503 39.530128,82.946503 
	C38.297916,84.586502 37.645588,85.454712 36.748638,86.648499 
	C45.127110,86.648499 52.947220,86.648499 61.200630,86.648499 
	C60.290642,85.299927 59.679363,84.394035 58.359505,82.438049 
	C65.221504,82.438049 71.067764,82.438049 76.914032,82.438049 
	C76.899612,82.044342 76.885193,81.650635 76.870773,81.256927 
	C73.604973,81.065460 70.339180,80.873993 67.073380,80.682526 
	C67.078735,80.085144 67.084091,79.487755 67.089455,78.890373 
	C73.034744,78.890373 78.980042,78.890373 84.925339,78.890373 
	C84.920891,78.410500 84.916435,77.930626 84.911987,77.450745 
	C82.279305,77.129280 79.646614,76.807816 77.013931,76.486351 
	C77.049553,76.066872 77.085167,75.647392 77.120789,75.227913 
	C80.384178,75.069901 83.647560,74.911880 86.910950,74.753868 
	C86.925125,74.370491 86.939293,73.987114 86.953468,73.603729 
	C84.976128,73.203186 82.998787,72.802635 81.021454,72.402092 
	C81.029716,72.098915 81.037979,71.795738 81.046234,71.492569 
	C83.030304,71.132530 85.014366,70.772499 86.998428,70.412460 
	C86.948425,70.059799 86.898415,69.707130 86.848412,69.354469 
	C85.629753,69.236320 84.411102,69.118172 82.261856,68.999924 
M60.996506,21.494255 
	C65.056252,23.871494 68.968071,26.565140 73.211708,28.549017 
	C79.029678,31.268883 81.116348,35.746216 81.026718,41.826435 
	C80.914474,49.440575 80.999725,57.057625 80.999725,64.717316 
	C83.236588,64.717316 84.958374,64.717316 86.999947,64.717316 
	C86.999947,54.974560 86.976837,45.509171 87.009552,36.043976 
	C87.026245,31.212566 85.037155,27.510597 80.934456,24.999250 
	C72.917221,20.091734 65.195465,14.516794 56.697426,10.658563 
	C52.543480,8.772613 46.206989,8.511173 42.112160,10.332827 
	C33.281223,14.261422 25.056639,19.712154 17.022968,25.184557 
	C14.333688,27.016453 11.491858,30.703211 11.283182,33.719460 
	C10.574840,43.958012 11.012636,54.275856 11.012636,64.769455 
	C13.144802,64.769455 14.869594,64.769455 17.000416,64.769455 
	C17.000416,56.589573 16.999376,48.631001 17.000803,40.672424 
	C17.001680,35.776588 18.748787,31.868898 23.185320,29.360874 
	C29.390463,25.853035 35.680969,22.470253 41.688282,18.646442 
	C46.687950,15.464025 51.323715,15.026949 56.200550,18.617750 
	C57.492947,19.569336 58.984516,20.250410 60.996506,21.494255 
M72.377930,44.098240 
	C70.921204,45.370003 69.464478,46.641766 69.048424,47.004997 
	C70.402176,48.316360 71.702080,49.575565 72.104027,49.964924 
	C72.359810,49.701038 73.627159,48.393578 74.973999,47.004120 
	C74.890297,46.906528 73.901566,45.753727 72.377930,44.098240 
z"
  />
  <path
    fill="#FAB005"
    opacity="1.000000"
    stroke="none"
    d="
M82.727150,68.999977 
	C84.411102,69.118172 85.629753,69.236320 86.848412,69.354469 
	C86.898415,69.707130 86.948425,70.059799 86.998428,70.412460 
	C85.014366,70.772499 83.030304,71.132530 81.046234,71.492569 
	C81.037979,71.795738 81.029716,72.098915 81.021454,72.402092 
	C82.998787,72.802635 84.976128,73.203186 86.953468,73.603729 
	C86.939293,73.987114 86.925125,74.370491 86.910950,74.753868 
	C83.647560,74.911880 80.384178,75.069901 77.120789,75.227913 
	C77.085167,75.647392 77.049553,76.066872 77.013931,76.486351 
	C79.646614,76.807816 82.279305,77.129280 84.911987,77.450745 
	C84.916435,77.930626 84.920891,78.410500 84.925339,78.890373 
	C78.980042,78.890373 73.034744,78.890373 67.089455,78.890373 
	C67.084091,79.487755 67.078735,80.085144 67.073380,80.682526 
	C70.339180,80.873993 73.604973,81.065460 76.870773,81.256927 
	C76.885193,81.650635 76.899612,82.044342 76.914032,82.438049 
	C71.067764,82.438049 65.221504,82.438049 58.359505,82.438049 
	C59.679363,84.394035 60.290642,85.299927 61.200630,86.648499 
	C52.947220,86.648499 45.127110,86.648499 36.748638,86.648499 
	C37.645588,85.454712 38.297916,84.586502 39.530128,82.946503 
	C32.875038,82.946503 27.018360,82.946503 21.161682,82.946503 
	C21.121916,82.460388 21.082150,81.974274 21.042383,81.488159 
	C24.327503,81.199577 27.612625,80.910988 30.897745,80.622406 
	C30.909918,80.136940 30.922091,79.651466 30.934261,79.166000 
	C24.989223,79.166000 19.044184,79.166000 13.099145,79.166000 
	C13.074097,78.585007 13.049049,78.004021 13.024001,77.423027 
	C15.671288,77.140182 18.318575,76.857338 20.965860,76.574493 
	C20.948114,76.138885 20.930367,75.703270 20.912619,75.267662 
	C17.655777,75.097168 14.398934,74.926682 11.142092,74.756187 
	C11.095551,74.351807 11.049010,73.947433 11.002469,73.543053 
	C12.969971,73.213722 14.937471,72.884399 16.904972,72.555069 
	C16.935349,72.235809 16.965723,71.916542 16.996099,71.597282 
	C15.022768,71.205757 13.049437,70.814240 11.076105,70.422714 
	C11.094229,70.101479 11.112352,69.780243 11.130476,69.459007 
	C18.760595,69.459007 26.390715,69.459007 35.214226,69.459007 
	C25.385208,60.126957 23.435043,49.787861 28.333874,38.777824 
	C30.306746,34.343830 33.373505,29.504391 40.286880,28.764801 
	C38.573090,38.258324 38.683144,47.125561 45.706024,54.167233 
	C52.735069,61.215084 61.548973,61.542782 70.839211,59.706043 
	C71.137970,60.152584 71.436729,60.599121 71.735489,61.045658 
	C70.067055,63.547092 68.398621,66.048523 66.430069,68.999924 
	C71.797295,68.999924 77.029579,68.999924 82.727150,68.999977 
z"
  />
  <path
    fill="#FAB005"
    opacity="1.000000"
    stroke="none"
    d="
M60.690571,21.274973 
	C58.984516,20.250410 57.492947,19.569336 56.200550,18.617750 
	C51.323715,15.026949 46.687950,15.464025 41.688282,18.646442 
	C35.680969,22.470253 29.390463,25.853035 23.185320,29.360874 
	C18.748787,31.868898 17.001680,35.776588 17.000803,40.672424 
	C16.999376,48.631001 17.000416,56.589573 17.000416,64.769455 
	C14.869594,64.769455 13.144802,64.769455 11.012636,64.769455 
	C11.012636,54.275856 10.574840,43.958012 11.283182,33.719460 
	C11.491858,30.703211 14.333688,27.016453 17.022968,25.184557 
	C25.056639,19.712154 33.281223,14.261422 42.112160,10.332827 
	C46.206989,8.511173 52.543480,8.772613 56.697426,10.658563 
	C65.195465,14.516794 72.917221,20.091734 80.934456,24.999250 
	C85.037155,27.510597 87.026245,31.212566 87.009552,36.043976 
	C86.976837,45.509171 86.999947,54.974560 86.999947,64.717316 
	C84.958374,64.717316 83.236588,64.717316 80.999725,64.717316 
	C80.999725,57.057625 80.914474,49.440575 81.026718,41.826435 
	C81.116348,35.746216 79.029678,31.268883 73.211708,28.549017 
	C68.968071,26.565140 65.056252,23.871494 60.690571,21.274973 
z"
  />
  <path
    fill="#FAAD04"
    opacity="1.000000"
    stroke="none"
    d="
M72.645386,44.349579 
	C73.901566,45.753727 74.890297,46.906528 74.973999,47.004120 
	C73.627159,48.393578 72.359810,49.701038 72.104027,49.964924 
	C71.702080,49.575565 70.402176,48.316360 69.048424,47.004997 
	C69.464478,46.641766 70.921204,45.370003 72.645386,44.349579 
z"
  />
</svg>
